solid md_arm_t1_link_blanks_no_mounting_holes
  facet normal 0 0 -1
    outer loop
      vertex 0 0 0
      vertex 65 12 0
      vertex 65 0 0
    endloop
  endfacet
  facet normal 0 0 -1
    outer loop
      vertex 0 0 0
      vertex 0 12 0
      vertex 65 12 0
    endloop
  endfacet
  facet normal 0 0 1
    outer loop
      vertex 0 0 5
      vertex 65 0 5
      vertex 65 12 5
    endloop
  endfacet
  facet normal 0 0 1
    outer loop
      vertex 0 0 5
      vertex 65 12 5
      vertex 0 12 5
    endloop
  endfacet
  facet normal 0 -1 0
    outer loop
      vertex 0 0 0
      vertex 65 0 0
      vertex 65 0 5
    endloop
  endfacet
  facet normal 0 -1 0
    outer loop
      vertex 0 0 0
      vertex 65 0 5
      vertex 0 0 5
    endloop
  endfacet
  facet normal 1 0 0
    outer loop
      vertex 65 0 0
      vertex 65 12 0
      vertex 65 12 5
    endloop
  endfacet
  facet normal 1 0 0
    outer loop
      vertex 65 0 0
      vertex 65 12 5
      vertex 65 0 5
    endloop
  endfacet
  facet normal 0 1 0
    outer loop
      vertex 65 12 0
      vertex 0 12 0
      vertex 0 12 5
    endloop
  endfacet
  facet normal 0 1 -0
    outer loop
      vertex 65 12 0
      vertex 0 12 5
      vertex 65 12 5
    endloop
  endfacet
  facet normal -1 0 0
    outer loop
      vertex 0 12 0
      vertex 0 0 0
      vertex 0 0 5
    endloop
  endfacet
  facet normal -1 0 0
    outer loop
      vertex 0 12 0
      vertex 0 0 5
      vertex 0 12 5
    endloop
  endfacet
  facet normal 0 0 -1
    outer loop
      vertex 0 20 0
      vertex 55 32 0
      vertex 55 20 0
    endloop
  endfacet
  facet normal 0 0 -1
    outer loop
      vertex 0 20 0
      vertex 0 32 0
      vertex 55 32 0
    endloop
  endfacet
  facet normal 0 0 1
    outer loop
      vertex 0 20 5
      vertex 55 20 5
      vertex 55 32 5
    endloop
  endfacet
  facet normal 0 0 1
    outer loop
      vertex 0 20 5
      vertex 55 32 5
      vertex 0 32 5
    endloop
  endfacet
  facet normal 0 -1 0
    outer loop
      vertex 0 20 0
      vertex 55 20 0
      vertex 55 20 5
    endloop
  endfacet
  facet normal 0 -1 0
    outer loop
      vertex 0 20 0
      vertex 55 20 5
      vertex 0 20 5
    endloop
  endfacet
  facet normal 1 0 0
    outer loop
      vertex 55 20 0
      vertex 55 32 0
      vertex 55 32 5
    endloop
  endfacet
  facet normal 1 0 0
    outer loop
      vertex 55 20 0
      vertex 55 32 5
      vertex 55 20 5
    endloop
  endfacet
  facet normal 0 1 0
    outer loop
      vertex 55 32 0
      vertex 0 32 0
      vertex 0 32 5
    endloop
  endfacet
  facet normal 0 1 -0
    outer loop
      vertex 55 32 0
      vertex 0 32 5
      vertex 55 32 5
    endloop
  endfacet
  facet normal -1 0 0
    outer loop
      vertex 0 32 0
      vertex 0 20 0
      vertex 0 20 5
    endloop
  endfacet
  facet normal -1 0 0
    outer loop
      vertex 0 32 0
      vertex 0 20 5
      vertex 0 32 5
    endloop
  endfacet
  facet normal 0 0 -1
    outer loop
      vertex 0 40 0
      vertex 30 52 0
      vertex 30 40 0
    endloop
  endfacet
  facet normal 0 0 -1
    outer loop
      vertex 0 40 0
      vertex 0 52 0
      vertex 30 52 0
    endloop
  endfacet
  facet normal 0 0 1
    outer loop
      vertex 0 40 5
      vertex 30 40 5
      vertex 30 52 5
    endloop
  endfacet
  facet normal 0 0 1
    outer loop
      vertex 0 40 5
      vertex 30 52 5
      vertex 0 52 5
    endloop
  endfacet
  facet normal 0 -1 0
    outer loop
      vertex 0 40 0
      vertex 30 40 0
      vertex 30 40 5
    endloop
  endfacet
  facet normal 0 -1 0
    outer loop
      vertex 0 40 0
      vertex 30 40 5
      vertex 0 40 5
    endloop
  endfacet
  facet normal 1 0 0
    outer loop
      vertex 30 40 0
      vertex 30 52 0
      vertex 30 52 5
    endloop
  endfacet
  facet normal 1 0 0
    outer loop
      vertex 30 40 0
      vertex 30 52 5
      vertex 30 40 5
    endloop
  endfacet
  facet normal 0 1 0
    outer loop
      vertex 30 52 0
      vertex 0 52 0
      vertex 0 52 5
    endloop
  endfacet
  facet normal 0 1 -0
    outer loop
      vertex 30 52 0
      vertex 0 52 5
      vertex 30 52 5
    endloop
  endfacet
  facet normal -1 0 0
    outer loop
      vertex 0 52 0
      vertex 0 40 0
      vertex 0 40 5
    endloop
  endfacet
  facet normal -1 0 0
    outer loop
      vertex 0 52 0
      vertex 0 40 5
      vertex 0 52 5
    endloop
  endfacet
endsolid md_arm_t1_link_blanks_no_mounting_holes
