solid md_arm_t1_soft_catch_tray_concept
  facet normal 0 0 -1
    outer loop
      vertex 0 0 0
      vertex 250 200 0
      vertex 250 0 0
    endloop
  endfacet
  facet normal 0 0 -1
    outer loop
      vertex 0 0 0
      vertex 0 200 0
      vertex 250 200 0
    endloop
  endfacet
  facet normal 0 0 1
    outer loop
      vertex 0 0 2.4
      vertex 250 0 2.4
      vertex 250 200 2.4
    endloop
  endfacet
  facet normal 0 0 1
    outer loop
      vertex 0 0 2.4
      vertex 250 200 2.4
      vertex 0 200 2.4
    endloop
  endfacet
  facet normal 0 -1 0
    outer loop
      vertex 0 0 0
      vertex 250 0 0
      vertex 250 0 2.4
    endloop
  endfacet
  facet normal 0 -1 0
    outer loop
      vertex 0 0 0
      vertex 250 0 2.4
      vertex 0 0 2.4
    endloop
  endfacet
  facet normal 1 0 0
    outer loop
      vertex 250 0 0
      vertex 250 200 0
      vertex 250 200 2.4
    endloop
  endfacet
  facet normal 1 0 0
    outer loop
      vertex 250 0 0
      vertex 250 200 2.4
      vertex 250 0 2.4
    endloop
  endfacet
  facet normal 0 1 0
    outer loop
      vertex 250 200 0
      vertex 0 200 0
      vertex 0 200 2.4
    endloop
  endfacet
  facet normal 0 1 -0
    outer loop
      vertex 250 200 0
      vertex 0 200 2.4
      vertex 250 200 2.4
    endloop
  endfacet
  facet normal -1 0 0
    outer loop
      vertex 0 200 0
      vertex 0 0 0
      vertex 0 0 2.4
    endloop
  endfacet
  facet normal -1 0 0
    outer loop
      vertex 0 200 0
      vertex 0 0 2.4
      vertex 0 200 2.4
    endloop
  endfacet
  facet normal 0 0 -1
    outer loop
      vertex 0 0 2.4
      vertex 250 2.4 2.4
      vertex 250 0 2.4
    endloop
  endfacet
  facet normal 0 0 -1
    outer loop
      vertex 0 0 2.4
      vertex 0 2.4 2.4
      vertex 250 2.4 2.4
    endloop
  endfacet
  facet normal 0 0 1
    outer loop
      vertex 0 0 22.4
      vertex 250 0 22.4
      vertex 250 2.4 22.4
    endloop
  endfacet
  facet normal 0 0 1
    outer loop
      vertex 0 0 22.4
      vertex 250 2.4 22.4
      vertex 0 2.4 22.4
    endloop
  endfacet
  facet normal 0 -1 0
    outer loop
      vertex 0 0 2.4
      vertex 250 0 2.4
      vertex 250 0 22.4
    endloop
  endfacet
  facet normal 0 -1 0
    outer loop
      vertex 0 0 2.4
      vertex 250 0 22.4
      vertex 0 0 22.4
    endloop
  endfacet
  facet normal 1 0 0
    outer loop
      vertex 250 0 2.4
      vertex 250 2.4 2.4
      vertex 250 2.4 22.4
    endloop
  endfacet
  facet normal 1 0 0
    outer loop
      vertex 250 0 2.4
      vertex 250 2.4 22.4
      vertex 250 0 22.4
    endloop
  endfacet
  facet normal 0 1 0
    outer loop
      vertex 250 2.4 2.4
      vertex 0 2.4 2.4
      vertex 0 2.4 22.4
    endloop
  endfacet
  facet normal 0 1 -0
    outer loop
      vertex 250 2.4 2.4
      vertex 0 2.4 22.4
      vertex 250 2.4 22.4
    endloop
  endfacet
  facet normal -1 0 0
    outer loop
      vertex 0 2.4 2.4
      vertex 0 0 2.4
      vertex 0 0 22.4
    endloop
  endfacet
  facet normal -1 0 0
    outer loop
      vertex 0 2.4 2.4
      vertex 0 0 22.4
      vertex 0 2.4 22.4
    endloop
  endfacet
  facet normal 0 0 -1
    outer loop
      vertex 0 197.6 2.4
      vertex 250 200 2.4
      vertex 250 197.6 2.4
    endloop
  endfacet
  facet normal 0 0 -1
    outer loop
      vertex 0 197.6 2.4
      vertex 0 200 2.4
      vertex 250 200 2.4
    endloop
  endfacet
  facet normal 0 0 1
    outer loop
      vertex 0 197.6 22.4
      vertex 250 197.6 22.4
      vertex 250 200 22.4
    endloop
  endfacet
  facet normal 0 0 1
    outer loop
      vertex 0 197.6 22.4
      vertex 250 200 22.4
      vertex 0 200 22.4
    endloop
  endfacet
  facet normal 0 -1 0
    outer loop
      vertex 0 197.6 2.4
      vertex 250 197.6 2.4
      vertex 250 197.6 22.4
    endloop
  endfacet
  facet normal 0 -1 0
    outer loop
      vertex 0 197.6 2.4
      vertex 250 197.6 22.4
      vertex 0 197.6 22.4
    endloop
  endfacet
  facet normal 1 0 0
    outer loop
      vertex 250 197.6 2.4
      vertex 250 200 2.4
      vertex 250 200 22.4
    endloop
  endfacet
  facet normal 1 0 0
    outer loop
      vertex 250 197.6 2.4
      vertex 250 200 22.4
      vertex 250 197.6 22.4
    endloop
  endfacet
  facet normal 0 1 0
    outer loop
      vertex 250 200 2.4
      vertex 0 200 2.4
      vertex 0 200 22.4
    endloop
  endfacet
  facet normal 0 1 -0
    outer loop
      vertex 250 200 2.4
      vertex 0 200 22.4
      vertex 250 200 22.4
    endloop
  endfacet
  facet normal -1 0 0
    outer loop
      vertex 0 200 2.4
      vertex 0 197.6 2.4
      vertex 0 197.6 22.4
    endloop
  endfacet
  facet normal -1 0 0
    outer loop
      vertex 0 200 2.4
      vertex 0 197.6 22.4
      vertex 0 200 22.4
    endloop
  endfacet
  facet normal 0 0 -1
    outer loop
      vertex 0 2.4 2.4
      vertex 2.4 197.6 2.4
      vertex 2.4 2.4 2.4
    endloop
  endfacet
  facet normal 0 0 -1
    outer loop
      vertex 0 2.4 2.4
      vertex 0 197.6 2.4
      vertex 2.4 197.6 2.4
    endloop
  endfacet
  facet normal 0 0 1
    outer loop
      vertex 0 2.4 22.4
      vertex 2.4 2.4 22.4
      vertex 2.4 197.6 22.4
    endloop
  endfacet
  facet normal 0 0 1
    outer loop
      vertex 0 2.4 22.4
      vertex 2.4 197.6 22.4
      vertex 0 197.6 22.4
    endloop
  endfacet
  facet normal 0 -1 0
    outer loop
      vertex 0 2.4 2.4
      vertex 2.4 2.4 2.4
      vertex 2.4 2.4 22.4
    endloop
  endfacet
  facet normal 0 -1 0
    outer loop
      vertex 0 2.4 2.4
      vertex 2.4 2.4 22.4
      vertex 0 2.4 22.4
    endloop
  endfacet
  facet normal 1 0 0
    outer loop
      vertex 2.4 2.4 2.4
      vertex 2.4 197.6 2.4
      vertex 2.4 197.6 22.4
    endloop
  endfacet
  facet normal 1 0 0
    outer loop
      vertex 2.4 2.4 2.4
      vertex 2.4 197.6 22.4
      vertex 2.4 2.4 22.4
    endloop
  endfacet
  facet normal 0 1 0
    outer loop
      vertex 2.4 197.6 2.4
      vertex 0 197.6 2.4
      vertex 0 197.6 22.4
    endloop
  endfacet
  facet normal 0 1 -0
    outer loop
      vertex 2.4 197.6 2.4
      vertex 0 197.6 22.4
      vertex 2.4 197.6 22.4
    endloop
  endfacet
  facet normal -1 0 0
    outer loop
      vertex 0 197.6 2.4
      vertex 0 2.4 2.4
      vertex 0 2.4 22.4
    endloop
  endfacet
  facet normal -1 0 0
    outer loop
      vertex 0 197.6 2.4
      vertex 0 2.4 22.4
      vertex 0 197.6 22.4
    endloop
  endfacet
  facet normal 0 0 -1
    outer loop
      vertex 247.6 2.4 2.4
      vertex 250 197.6 2.4
      vertex 250 2.4 2.4
    endloop
  endfacet
  facet normal 0 0 -1
    outer loop
      vertex 247.6 2.4 2.4
      vertex 247.6 197.6 2.4
      vertex 250 197.6 2.4
    endloop
  endfacet
  facet normal 0 0 1
    outer loop
      vertex 247.6 2.4 22.4
      vertex 250 2.4 22.4
      vertex 250 197.6 22.4
    endloop
  endfacet
  facet normal 0 0 1
    outer loop
      vertex 247.6 2.4 22.4
      vertex 250 197.6 22.4
      vertex 247.6 197.6 22.4
    endloop
  endfacet
  facet normal 0 -1 0
    outer loop
      vertex 247.6 2.4 2.4
      vertex 250 2.4 2.4
      vertex 250 2.4 22.4
    endloop
  endfacet
  facet normal 0 -1 0
    outer loop
      vertex 247.6 2.4 2.4
      vertex 250 2.4 22.4
      vertex 247.6 2.4 22.4
    endloop
  endfacet
  facet normal 1 0 0
    outer loop
      vertex 250 2.4 2.4
      vertex 250 197.6 2.4
      vertex 250 197.6 22.4
    endloop
  endfacet
  facet normal 1 0 0
    outer loop
      vertex 250 2.4 2.4
      vertex 250 197.6 22.4
      vertex 250 2.4 22.4
    endloop
  endfacet
  facet normal 0 1 0
    outer loop
      vertex 250 197.6 2.4
      vertex 247.6 197.6 2.4
      vertex 247.6 197.6 22.4
    endloop
  endfacet
  facet normal 0 1 -0
    outer loop
      vertex 250 197.6 2.4
      vertex 247.6 197.6 22.4
      vertex 250 197.6 22.4
    endloop
  endfacet
  facet normal -1 0 0
    outer loop
      vertex 247.6 197.6 2.4
      vertex 247.6 2.4 2.4
      vertex 247.6 2.4 22.4
    endloop
  endfacet
  facet normal -1 0 0
    outer loop
      vertex 247.6 197.6 2.4
      vertex 247.6 2.4 22.4
      vertex 247.6 197.6 22.4
    endloop
  endfacet
endsolid md_arm_t1_soft_catch_tray_concept
